<?xml version="1.0" standalone="no"?>
<!DOCTYPE svg PUBLIC "-//W3C//DTD SVG 20010904//EN"
 "http://www.w3.org/TR/2001/REC-SVG-20010904/DTD/svg10.dtd">
<svg version="1.0" xmlns="http://www.w3.org/2000/svg"
 width="512.000000pt" height="512.000000pt" viewBox="0 0 512.000000 512.000000"
 preserveAspectRatio="xMidYMid meet">
<metadata>
Created by potrace 1.14, written by Peter Selinger 2001-2017
</metadata>
<g transform="translate(0.000000,512.000000) scale(0.100000,-0.100000)"
fill="#000000" stroke="none">
<path d="M3500 3894 c-89 -19 -200 -76 -258 -132 -99 -96 -137 -202 -130 -362
3 -84 8 -105 35 -161 19 -37 55 -87 87 -118 l55 -54 -37 -29 c-91 -73 -163
-193 -184 -308 -14 -82 2 -184 43 -269 99 -203 388 -332 654 -291 313 48 505
239 505 503 0 161 -55 274 -177 368 l-51 40 47 44 c77 72 131 197 131 300 0
63 -27 175 -57 232 -54 107 -189 206 -325 238 -79 18 -251 18 -338 -1z m271
-350 c18 -9 37 -30 45 -51 31 -74 -8 -154 -103 -210 l-44 -26 -55 38 c-30 21
-68 53 -85 73 -26 29 -30 41 -26 72 11 86 81 135 180 126 32 -3 71 -13 88 -22z
m-48 -655 c89 -45 115 -66 137 -109 26 -52 25 -115 -2 -170 -31 -62 -88 -92
-183 -98 -85 -5 -137 16 -181 74 -52 68 -41 188 22 246 18 15 134 88 141 88 2
0 32 -14 66 -31z"/>
<path d="M1345 3886 c-333 -78 -584 -318 -671 -641 -26 -96 -26 -341 -1 -435
25 -91 108 -253 167 -327 104 -130 295 -255 456 -297 234 -62 585 -19 863 105
l71 32 0 433 0 434 -360 0 c-198 0 -360 -2 -360 -5 0 -3 30 -76 66 -163 36
-86 68 -162 71 -169 3 -8 34 -13 86 -15 l82 -3 0 -120 0 -120 -49 -24 c-39
-20 -69 -25 -150 -29 -121 -5 -205 12 -303 62 -229 115 -317 410 -198 654 133
269 485 342 762 156 l65 -43 26 31 c60 72 212 263 212 268 -1 14 -117 88 -205
131 -148 72 -229 91 -415 95 -109 3 -173 -1 -215 -10z"/>
<path d="M2825 3449 c-123 -18 -214 -58 -287 -127 -58 -54 -92 -109 -121 -195
-20 -58 -21 -87 -25 -494 l-3 -433 190 0 191 0 0 383 c0 246 4 396 11 422 6
21 26 54 44 72 30 30 39 33 90 33 31 0 65 -5 76 -10 18 -10 19 -6 19 168 0
178 0 180 -22 186 -30 7 -88 6 -163 -5z"/>
<path d="M241 1816 c-6 -25 -11 -50 -11 -55 0 -7 36 -11 100 -11 74 0 100 -3
100 -12 -1 -7 -25 -101 -54 -208 l-53 -195 45 -3 c24 -2 50 -1 56 1 6 3 36 97
66 211 l55 206 106 0 107 0 11 44 c6 25 11 50 11 55 0 8 -85 11 -264 11 l-264
0 -11 -44z"/>
<path d="M1296 1808 c-20 -73 -126 -468 -126 -474 0 -2 24 -4 54 -4 l54 0 29
105 28 105 51 0 52 0 63 -105 64 -105 69 0 68 0 -14 23 c-55 86 -108 175 -108
180 0 4 40 7 89 7 l88 0 42 154 c22 85 41 157 41 160 0 3 -119 6 -264 6 l-265
0 -15 -52z m404 -64 c0 -3 -5 -25 -11 -50 l-11 -44 -154 0 c-168 0 -162 -3
-143 63 l10 37 154 0 c85 0 155 -3 155 -6z"/>
<path d="M2575 1848 c-10 -27 -135 -499 -135 -508 0 -6 24 -10 53 -10 l53 0
67 253 c37 138 68 258 67 265 0 8 -17 12 -50 12 -32 0 -52 -5 -55 -12z"/>
<path d="M3420 1854 c0 -7 -131 -495 -137 -511 -4 -10 52 -13 261 -13 l266 0
9 23 c5 12 12 37 16 55 l7 32 -212 0 c-189 0 -211 2 -206 16 3 8 22 78 43 155
l36 139 212 0 213 0 11 44 c6 25 11 50 11 55 0 8 -85 11 -265 11 -146 0 -265
-3 -265 -6z"/>
<path d="M4466 1808 c-29 -104 -126 -466 -126 -472 0 -3 24 -6 54 -6 l54 0 27
100 c15 55 31 100 36 100 4 0 49 -45 100 -100 l93 -100 78 0 c43 0 78 3 78 7
0 4 -52 59 -115 123 -63 64 -115 121 -115 126 1 5 80 63 176 129 97 66 180
125 186 132 8 10 -5 13 -63 13 l-74 0 -154 -100 c-85 -55 -156 -98 -158 -96
-4 4 21 104 43 179 5 15 -2 17 -50 17 l-55 0 -15 -52z"/>
</g>
</svg>
